<?xml version="1.0" encoding="UTF-8"?>
<svg width="24px" height="24px" viewBox="0 0 24 24" version="1.1" xmlns="http://www.w3.org/2000/svg" xmlns:xlink="http://www.w3.org/1999/xlink">
    <!-- Generator: Sketch 53.2 (72643) - https://sketchapp.com -->
    <title>icons/Activity</title>
    <desc>Created with Sketch.</desc>
    <g id="icons/Activity" stroke="none" stroke-width="1" fill="none" fill-rule="evenodd">
        <rect id="Rectangle" fill-rule="nonzero" x="0" y="0" width="24" height="24"></rect>
        <path d="M3.72451353,11.5394963 L4.92800128,14.9218158 C4.97023691,14.927307 5.0130072,14.9275381 5.05517934,14.9223829 L5.17493229,14.9073442 C5.40044992,14.8790234 5.62308041,14.9789652 5.75538262,15.167916 L8.80121763,19.5179047 C8.93022951,19.7018716 9.17121038,19.7774965 9.38296716,19.6986573 L10.8880055,19.1383165 C10.8236559,19.0956987 10.7667206,19.0406973 10.7208101,18.9751668 L8.17331307,15.338991 C7.89335994,14.9393993 8.14427299,14.3799422 8.62297969,14.336376 L8.97607072,14.3042419 C10.6649973,14.1499499 12.1930561,14.1422978 13.4708007,14.2212328 L10.7091172,6.45971116 C8.98080374,8.14393253 6.65631835,9.94589224 3.86512077,11.428996 C3.81295098,11.4568154 3.76514405,11.4946327 3.72451353,11.5394963 Z M2.66928179,12.2878838 L2.57546043,12.3228145 C2.31399665,12.42016 2.1784394,12.7149159 2.27162699,12.9768132 L2.9117565,14.7758532 C3.00489299,15.0376069 3.29372776,15.1740724 3.55533149,15.0766747 L3.64915286,15.0417441 L2.66928179,12.2878838 Z M11.5861153,5.2104102 L14.9274935,14.6011238 C15.0629413,14.7395678 15.27433,14.7887552 15.4575387,14.7205448 L16.3428514,14.390934 C16.6041752,14.2936406 16.7395345,13.9991209 16.6462959,13.7370801 L13.4455076,4.74148491 C13.3523489,4.47966876 13.0633377,4.34289205 12.802181,4.4401233 L11.9168683,4.76973407 C11.7348887,4.83748688 11.6043957,5.01225007 11.5861153,5.2104102 Z M3.98006015,16.2703454 C3.07587066,16.6069842 2.0732264,16.1332658 1.74482412,15.2103138 L1.10469461,13.4112738 C0.776289911,12.488315 1.24655055,11.4657795 2.15073178,11.1291438 L2.60255901,10.960924 C2.76945426,10.6827651 3.00813059,10.453464 3.29187683,10.3021576 C6.25021975,8.73024045 8.66856787,6.77883599 10.355311,5.03559074 C10.4351193,4.37730246 10.8735526,3.80636951 11.4921396,3.57606341 L12.3774523,3.24645264 C13.2815241,2.90985767 14.2841371,3.38435169 14.61244,4.30702432 L17.8132282,13.3026195 C18.1416354,14.2255851 17.6717531,15.247972 16.76758,15.5846047 L15.8822673,15.9142155 C15.2621533,16.1450901 14.5656228,15.9947001 14.0935176,15.5435031 C12.9255543,15.4328941 11.4669137,15.3997259 9.82163141,15.5110268 L11.5584123,17.9900249 C11.9349033,18.0667244 12.2538198,18.3382721 12.3888549,18.7177789 C12.5996575,19.3102251 12.2989385,19.9648134 11.719909,20.1803919 L9.80769581,20.892328 C9.0736991,21.1656023 8.24633471,20.9059579 7.79190206,20.2579508 L4.94749049,16.1956306 C4.7720636,16.1909032 4.5981094,16.159525 4.43144398,16.1022906 L3.98006015,16.2703454 Z M21.7152964,7.57795323 L18.2506741,8.86786673 C17.4727192,9.15750713 17.0479906,7.96383646 17.8259455,7.67419606 L21.2905677,6.38428256 C22.0685226,6.09464217 22.4932513,7.28831284 21.7152964,7.57795323 Z M20.2379612,4.18487227 L17.1092972,6.17879833 C16.406634,6.62661197 15.7499601,5.54846667 16.4526233,5.10065303 L19.5812873,3.10672697 C20.2839505,2.65891333 20.9406244,3.73705863 20.2379612,4.18487227 Z M22.4655623,11.2127833 L18.8159051,11.7424941 C17.9962326,11.8614612 17.8217792,10.6037804 18.6414517,10.4848132 L22.2911089,9.95510254 C23.1107813,9.8361354 23.2852347,11.0938162 22.4655623,11.2127833 Z" id="Combined-Shape" fill="#808080"></path>
    </g>
</svg>