<?xml version="1.0" encoding="UTF-8"?>
<svg width="24px" height="24px" viewBox="0 0 24 24" version="1.1" xmlns="http://www.w3.org/2000/svg" xmlns:xlink="http://www.w3.org/1999/xlink">
    <!-- Generator: Sketch 53.2 (72643) - https://sketchapp.com -->
    <title>icons/home</title>
    <desc>Created with Sketch.</desc>
    <defs>
        <path d="M4.28169066,12.9324489 C4.21683535,12.9975157 4.13772821,13.049103 4.04588874,13.0874943 C3.95850919,13.1240211 3.8696983,13.1462963 3.78001039,13.1537946 C3.6789237,13.162246 3.57842082,13.1454409 3.48091384,13.1046805 C3.39520142,13.0688505 3.31621888,13.0220268 3.22798156,12.9496351 C3.13552373,12.8568758 3.06981029,12.7444109 3.03192172,12.6151696 C2.99350563,12.484129 2.98955442,12.353314 3.02120114,12.2263143 C3.05180225,12.1035107 3.11224462,11.9898117 3.20801228,11.8782103 L11.4848175,3.23063192 C11.6356803,3.07927719 11.8174252,3 12.0202372,3 C12.1261004,3 12.2264778,3.0193663 12.3198551,3.05840035 C12.4192653,3.09995634 12.5036592,3.16345818 12.5587827,3.23383875 L20.7984883,11.8785105 L20.8026,11.882957 C20.9398904,12.0359993 21.0071318,12.2185399 20.9994015,12.4201811 C20.9918774,12.616447 20.9192521,12.79285 20.7782322,12.9496351 C20.637717,13.0906085 20.4611383,13.1630808 20.2599428,13.1630808 C20.0439925,13.1630808 19.8584363,13.0821412 19.7213463,12.9291885 L19.3293387,12.5176102 L19.3293387,20.2493886 C19.3293387,20.4520529 19.2536808,20.631827 19.1080216,20.7779612 C18.9623624,20.9240954 18.7831726,21 18.5811671,21 L14.7439653,21 C14.5419597,21 14.3627699,20.9240954 14.2171107,20.7779612 C14.0714515,20.631827 13.9957936,20.4520529 13.9957936,20.2493886 L13.9957936,14.9504484 L10.0269264,14.9504484 L10.0104201,20.2493886 C10.0104201,20.301653 10.0024476,20.3576429 9.98731826,20.4183575 C9.97252135,20.4777381 9.95337587,20.5315203 9.92934929,20.5797301 C9.90599155,20.626598 9.87842695,20.670055 9.84668134,20.7098664 C9.81499329,20.7496056 9.77701451,20.7877083 9.73289263,20.8245964 C9.6872002,20.8627976 9.64013827,20.8942745 9.59151629,20.9186648 C9.54595896,20.9415177 9.49729689,20.960295 9.44567043,20.9750935 C9.38738479,20.9918008 9.32609077,21 9.26224847,21 L5.44217707,21 C5.22838691,21 5.04428619,20.9237104 4.90298815,20.7740761 C4.76507604,20.6280275 4.69400541,20.4497716 4.69400541,20.2493886 L4.69400541,12.5093982 L4.28169066,12.9324489 Z M17.8329954,19.4987772 L17.8329954,11.0203851 C17.8329954,10.9965523 17.8341266,10.9727485 17.8363815,10.9489925 L12.0200324,4.84843502 L6.18698042,10.9491799 C6.18922347,10.9728736 6.19034872,10.996615 6.19034872,11.0203851 L6.19034872,19.4987772 L8.51470087,19.4987772 L8.53120718,14.199837 C8.53120718,13.9971727 8.60686508,13.8173986 8.75252428,13.6712644 C8.89818349,13.5251302 9.07737326,13.4492256 9.27937884,13.4492256 L14.7439653,13.4492256 C14.9459709,13.4492256 15.1251606,13.5251302 15.2708198,13.6712644 C15.416479,13.8173986 15.4921369,13.9971727 15.4921369,14.199837 L15.4921369,19.4987772 L17.8329954,19.4987772 Z" id="path-1"></path>
    </defs>
    <g id="icons/home" stroke="none" stroke-width="1" fill="none" fill-rule="evenodd">
        <mask id="mask-2" fill="white">
            <use xlink:href="#path-1"></use>
        </mask>
        <use id="Home" fill="#808080" xlink:href="#path-1"></use>
    </g>
</svg>