<?xml version="1.0" encoding="UTF-8"?>
<svg width="24px" height="24px" viewBox="0 0 24 24" version="1.1" xmlns="http://www.w3.org/2000/svg" xmlns:xlink="http://www.w3.org/1999/xlink">
    <!-- Generator: Sketch 53.2 (72643) - https://sketchapp.com -->
    <title>icons/Hot Sale</title>
    <desc>Created with Sketch.</desc>
    <g id="icons/Hot-Sale" stroke="none" stroke-width="1" fill="none" fill-rule="evenodd">
        <rect id="Rectangle" fill-rule="nonzero" x="0" y="0" width="24" height="24"></rect>
        <path d="M8.30369551,22.4361682 L1,22.4361682 L1,13.2370916 C1,12.7326425 1.40998311,12.3252353 1.91384443,12.3252353 L7.46211144,12.3252353 L7.46211144,10.0208471 C7.46211144,9.51639781 7.87167945,9.10940389 8.37554058,9.10940389 L15.6248332,9.10940389 C16.1286943,9.10940389 16.5382623,9.51639781 16.5382623,10.0208471 L16.5382623,13.6970755 L22.0865709,13.6970755 C22.5906197,13.6970755 23,14.1046736 23,14.6089318 L23,22.4361682 L15.7897446,22.4361682 L8.30369551,22.4361682 Z M8.30369551,21.2006821 L8.30369551,13.5607214 L7.46211144,13.5607214 L2.23548611,13.5607214 L2.23548611,21.2006821 L8.30369551,21.2006821 Z M9.53918162,21.2006821 L14.5542585,21.2006821 L14.5542585,14.6089318 C14.5542585,14.1609946 14.8772977,13.7893312 15.3027762,13.7118964 L15.3027762,10.34489 L8.69759755,10.34489 L8.69759755,12.3280144 C9.16813295,12.3645603 9.53918162,12.7570212 9.53918162,13.2370916 L9.53918162,21.2006821 Z M16.5382623,14.9325616 L15.7897446,14.9325616 L15.7897446,21.2006821 L21.7645139,21.2006821 L21.7645139,14.9325616 L16.5382623,14.9325616 Z M12.5873875,6.42470718 L13.2649391,6.42470718 C13.4517547,6.42470718 13.5869848,6.45875353 13.6706336,6.52684724 C13.7542823,6.59494095 13.7961061,6.70661296 13.7961061,6.86186662 C13.7961061,7.01439653 13.7556765,7.12470669 13.674816,7.1928004 C13.5939555,7.26089411 13.4573312,7.29494045 13.2649391,7.29494045 L10.7973128,7.29494045 C10.6049206,7.29494045 10.4682964,7.26089411 10.3874359,7.1928004 C10.3065754,7.12470669 10.2661458,7.01439653 10.2661458,6.86186662 C10.2661458,6.70661296 10.3072725,6.59494095 10.3895271,6.52684724 C10.4717817,6.45875353 10.6077089,6.42470718 10.7973128,6.42470718 L11.5752424,6.42470718 L11.5752424,2.97645893 L11.1068117,3.09494139 C11.0343161,3.11128388 10.9743687,3.12354056 10.9269677,3.13171181 C10.8795668,3.13988306 10.8447136,3.14396862 10.8224073,3.14396862 C10.7080873,3.14396862 10.6195604,3.10856042 10.5568238,3.03774296 C10.4940872,2.9669255 10.4627194,2.86614832 10.4627194,2.7354084 C10.4627194,2.6400772 10.4975725,2.55972783 10.5672798,2.49435787 C10.6369872,2.4289879 10.7443348,2.37859931 10.889326,2.34319058 L11.9265655,2.06536964 C12.0130026,2.04357965 12.084103,2.0272374 12.1398688,2.01634241 C12.1956346,2.00544742 12.2416408,2 12.2778886,2 C12.3894203,2 12.4688854,2.02996078 12.5162864,2.08988325 C12.5636873,2.14980571 12.5873875,2.25058289 12.5873875,2.39221781 L12.5873875,6.42470718 Z" id="Combined-Shape" fill="#808080"></path>
    </g>
</svg>