<?xml version="1.0" encoding="UTF-8"?>
<svg width="24px" height="24px" viewBox="0 0 24 24" version="1.1" xmlns="http://www.w3.org/2000/svg" xmlns:xlink="http://www.w3.org/1999/xlink">
    <!-- Generator: Sketch 53.2 (72643) - https://sketchapp.com -->
    <title>icons/TV_shop</title>
    <desc>Created with Sketch.</desc>
    <g id="icons/TV_shop" stroke="none" stroke-width="1" fill="none" fill-rule="evenodd">
        <rect id="Rectangle" fill-rule="nonzero" x="0" y="0" width="24" height="24"></rect>
        <path d="M11.1972477,5.4616308 L8.98875711,3.26368579 C8.6982845,2.97460018 8.6982845,2.50589981 8.98875711,2.2168142 C9.27922972,1.9277286 9.75017888,1.9277286 10.0406515,2.2168142 L12.6703875,4.83399317 C12.6767568,4.84033207 12.6829864,4.84675733 12.6890764,4.85326517 C12.6951664,4.84675733 12.7013961,4.84033207 12.7077654,4.83399317 L15.3375013,2.2168142 C15.627974,1.9277286 16.0989231,1.9277286 16.3893957,2.2168142 C16.6798683,2.50589981 16.6798683,2.97460018 16.3893957,3.26368579 L14.1810702,5.46146655 L19.846544,5.46115469 C19.9839356,5.46126629 20.1156448,5.51771664 20.2126418,5.61806346 C20.3096387,5.71841028 20.3639608,5.85441616 20.3636349,5.99610394 L20.3636349,19.1314706 C20.3639614,19.2730421 20.3096003,19.4089183 20.2125679,19.5090643 C20.1155355,19.6092104 19.9838227,19.6653789 19.846544,19.6651542 L4.51831814,19.6651542 C4.38092691,19.6653782 4.24908848,19.6092499 4.15186138,19.5091405 C4.05463429,19.4090311 3.99999983,19.2731586 4,19.1314706 L4,5.99652582 C4,5.70131451 4.23205893,5.46199845 4.51831814,5.46199845 L11.1972477,5.4616308 Z M18.7231648,17.9788757 L18.7246286,7.15333248 C16.4661383,6.94730059 14.2854058,6.84428464 12.1824311,6.84428464 C10.0794563,6.84428464 7.89991319,6.94730059 5.64380165,7.15333248 L5.64380165,17.9788757 C8.44331095,18.1150009 10.6228541,18.1830634 12.1824311,18.1830634 C13.7420081,18.1830634 15.9222527,18.1150009 18.7231648,17.9788757 Z M5.64830649,20.1996283 L18.7153299,20.1996283 C19.2148741,20.1996283 19.6198347,20.6026553 19.6198347,21.0998142 C19.6198347,21.5969731 19.2148741,22 18.7153299,22 L5.64830649,22 C5.14876226,22 4.74380165,21.5969731 4.74380165,21.0998142 C4.74380165,20.6026553 5.14876226,20.1996283 5.64830649,20.1996283 Z M10.3636364,10.685984 C10.3636364,10.289984 10.6746364,10.048984 11.0106364,10.259984 L13.9366364,12.176984 C14.2506364,12.374984 14.2856364,12.831984 13.9716364,13.029984 L10.9926364,14.946984 C10.6576364,15.157984 10.3636364,14.916984 10.3636364,14.520984 L10.3636364,10.685984 Z" id="TV" fill="#808080"></path>
    </g>
</svg>