<svg xmlns="http://www.w3.org/2000/svg" viewBox="0 0 96 64">
  <path fill="#FFF" fill-rule="evenodd" d="M28.7205687,16.0076765 C28.8130648,16.0025812 28.906231,16 29,16 L115,16 C115,18.7614237 117.238576,21 120,21 L120,75 C120,75.0032967 119.999997,75.0065926 119.99999,75.0098878 C117.389518,75.1732196 115.322152,77.3396706 115.317022,79.9901122 C115.212191,79.9966713 115.106484,80 115,80 L29,80 C28.999427,80 28.998854,79.9999999 28.998281,79.9999997 C28.9281041,77.3003451 26.7180859,75.1333145 24.001719,75.1324007 C24.0005753,75.0884062 24,75.0442703 24,75 L24,21 C24,20.9974407 24.0000019,20.9948819 24.0000058,20.9923235 C26.6289221,20.8475066 28.7165655,18.6718352 28.7205687,16.0076765 Z" transform="translate(-24 -16)"/>
</svg>
