<?xml version="1.0" encoding="UTF-8"?>
<svg width="24px" height="25px" viewBox="0 0 24 25" version="1.1" xmlns="http://www.w3.org/2000/svg" xmlns:xlink="http://www.w3.org/1999/xlink">
    <!-- Generator: Sketch 53.2 (72643) - https://sketchapp.com -->
    <title>icon-svg-Header-Cart</title>
    <desc>Created with Sketch.</desc>
    <defs>
        <path d="M9.85872354,18.2971806 C8.91808481,18.2971806 8.14344114,19.1200294 8.14344114,20.1485903 C8.14344114,21.1771513 8.91808481,22 9.85872354,22 C10.7993623,22 11.5740059,21.1771513 11.5740059,20.1485903 C11.5740059,19.1200294 10.8270281,18.2971806 9.85872354,18.2971806 Z M17.9648162,18.2971806 C17.0241774,18.2971806 16.2495338,19.1200294 16.2495338,20.1485903 C16.2495338,21.1771513 17.0241774,22 17.9648162,22 C18.9054549,22 19.6800986,21.1771513 19.6800986,20.1485903 C19.6800986,19.1200294 18.9054549,18.2971806 17.9648162,18.2971806 Z M22.8803898,8.61792132 C22.872977,8.64401725 22.8645645,8.67098882 22.8551013,8.69886476 L20.5377398,16.2694462 C20.5377398,16.2694462 20.3717447,17.2686197 19.4864377,17.2686197 L8.3647679,17.2686197 C7.31346579,17.2686197 7.2581341,16.0049591 7.2581341,16.0049591 L5.37685663,4.80833869 L1.72496506,3.86794012 C1.19931401,3.72100285 0.894989708,3.22141611 1.03331893,2.66305446 C1.14398231,2.10469281 1.66963337,1.89898062 2.19528443,2.0459179 L6.26216367,3.1626412 C6.6494855,3.28019102 6.92614396,3.63284048 6.98147565,4.04426485 L7.50510586,7.20773798 L22.2,7.20773798 C22.6418278,7.20773798 23,7.56591018 23,8.00773798 L23,8.1969154 C23,8.3513867 22.9562194,8.4956325 22.8803898,8.61792132 Z M7.80125738,8.9969154 L7.86678269,9.39278171 L9.05641403,15.3584351 L18.9607866,15.3584351 C18.9607866,15.3584351 19.9899167,12.222759 20.8155947,8.9969154 L7.80125738,8.9969154 Z" id="path-1"></path>
    </defs>
    <g id="UI-FLOW" stroke="none" stroke-width="1" fill="none" fill-rule="evenodd">
        <g id="Android" transform="translate(-325.000000, -90.000000)">
            <g id="必備元件">
                <g id="header" transform="translate(0.000000, 80.000000)">
                    <g id="btn__basket" transform="translate(314.000000, 0.000000)">
                        <g id="icon-svg-Header-Cart" transform="translate(11.000000, 11.000000)">
                            <rect fill-rule="nonzero" x="0" y="0" width="24" height="24"></rect>
                            <mask id="mask-2" fill="white">
                                <use xlink:href="#path-1"></use>
                            </mask>
                            <use id="Cart" fill="#FFFFFF" xlink:href="#path-1"></use>
                        </g>
                    </g>
                </g>
            </g>
        </g>
    </g>
</svg>