<?xml version="1.0" encoding="UTF-8"?>
<svg width="110px" height="38px" viewBox="0 0 110 38" version="1.1" xmlns="http://www.w3.org/2000/svg" xmlns:xlink="http://www.w3.org/1999/xlink">
    <!-- Generator: Sketch 53.2 (72643) - https://sketchapp.com -->
    <title>icon--logo-with-text</title>
    <desc>Created with Sketch.</desc>
    <g id="UI-FLOW" stroke="none" stroke-width="1" fill="none" fill-rule="evenodd">
        <g id="header" transform="translate(-125.000000, -4.000000)" fill="#FFFFFF">
            <g id="logo__main" transform="translate(125.000000, 4.000000)">
                <path d="M37.6479719,21.8812976 C37.7085842,22.5812152 37.352094,23.1832803 36.9049098,23.5126266 C35.8902146,24.2111852 34.0453552,24.637025 31.7344544,24.7036191 C32.6521698,25.3849628 33.5936812,26.1120617 34.3784985,26.9587582 C34.3784985,26.9587582 35.451561,28.0591465 35.452908,29.1984946 C35.4542549,29.8997712 35.13503,30.5185981 34.6460906,30.9340184 C33.7440895,31.8183156 32.7446597,32.2369071 32.1762509,32.8122439 C31.8018014,33.1823622 31.4915561,33.7391251 31.0780454,34.3312237 L31.0798413,34.3321298 C31.0798413,34.3321298 30.3780854,35.3410078 29.639513,35.8406901 C28.238246,36.6651885 26.7718768,35.4932229 25.9942432,34.6211572 C25.6754673,34.2641766 25.2466913,33.7608701 24.7869356,33.1501977 C24.2593839,32.448921 23.8270161,31.8287351 23.8270161,31.8287351 C23.7502405,34.1033541 23.3793829,36.3847684 22.5784023,37.4779084 C22.2816264,37.8792851 21.8546463,37.985292 21.5197071,37.9984296 C21.5107275,37.9984296 21.5008499,37.9984296 21.4914213,37.9993357 C21.3706457,38.0025068 21.2628904,37.9938994 21.1798291,37.9825739 C21.1780332,37.9825739 21.1762373,37.9825739 21.1739924,37.9812148 L21.1699516,37.9812148 C21.1196658,37.9748725 21.0783596,37.9662651 21.0500739,37.9603758 L21.0509718,37.9603758 C20.9423186,37.942255 20.7905633,37.9191509 20.6693387,37.899218 C20.6877469,37.9019361 20.7254612,37.9078254 20.7770939,37.9069193 C20.2881545,37.8312648 19.5042352,37.7220867 18.8280711,37.6899222 L18.8276221,37.6899222 C18.1505601,37.7220867 17.3670897,37.8312648 16.8777014,37.9069193 C16.9293341,37.9078254 16.9670484,37.9019361 16.9859056,37.899218 C16.864232,37.9191509 16.7124767,37.942255 16.6038235,37.9603758 L16.6047214,37.9603758 C16.5759867,37.9662651 16.5351295,37.9748725 16.4848437,37.9812148 L16.4803539,37.9812148 C16.478109,37.9825739 16.4763131,37.9825739 16.4749662,37.9825739 C16.3919048,37.9938994 16.2841496,38.0025068 16.1638229,37.9993357 C16.1548433,37.9984296 16.1449658,37.9984296 16.1355372,37.9984296 C15.7997,37.985292 15.3731689,37.8792851 15.076842,37.4779084 C14.2749635,36.3847684 13.9045548,34.1033541 13.8282282,31.8287351 C13.8282282,31.8287351 13.3949624,32.448921 12.8678597,33.1501977 C12.408104,33.7608701 11.979328,34.2641766 11.6605521,34.6211572 C10.8824695,35.4932229 9.41654929,36.6651885 8.01483327,35.8406901 C7.27670991,35.3410078 6.57495394,34.3321298 6.57495394,34.3321298 L6.57719884,34.3312237 C6.16323915,33.7391251 5.85299387,33.1823622 5.47854443,32.8122439 C4.91013556,32.2369071 3.91070576,31.8183156 3.00915362,30.9340184 C2.51931628,30.5185981 2.20098936,29.8997712 2.20188732,29.1984946 C2.20323426,28.0591465 3.27584783,26.9587582 3.27584783,26.9587582 C4.06111411,26.1120617 5.00262547,25.3849628 5.92034089,24.7036191 C3.61033804,24.637025 1.76413168,24.2111852 0.749885527,23.5126266 C0.302701302,23.1832803 -0.0542379143,22.5812152 0.00682338562,21.8812976 C0.00906828635,21.8971533 0.0153540084,21.9102909 0.0175989091,21.9256937 C0.02029279,21.8713311 0.0211907503,21.8174216 0.0301703532,21.7617 C0.0301703532,21.7617 0.250170625,20.1335421 0.321109488,18.9946471 C0.372742205,18.1873635 0.0454356782,16.1908994 0.0454356782,16.1908994 C0.0409458767,16.1483154 0.0333132142,16.1075435 0.0333132142,16.0640535 C0.0333132142,15.8715195 0.0791091891,15.6907641 0.155435814,15.5272235 C0.180578702,15.4719549 0.206170571,15.4139682 0.244782863,15.3618708 C0.763803912,14.6524397 2.07707084,14.0857103 4.07323657,13.9611295 C5.2033196,13.8904582 5.97287157,13.9199046 6.7500562,13.9584114 L6.77475011,13.950257 C5.52254448,13.0800035 4.3529512,12.1390786 3.60944008,11.4160569 C3.59237883,11.3992951 3.57846045,11.3838924 3.56229716,11.3680367 C3.45454193,11.2638418 3.35531732,11.1655363 3.27584783,11.0790092 C2.96425561,10.7365253 2.67556137,10.3392258 2.48878563,9.95642291 C2.30200989,9.62843563 2.18707098,9.25242811 2.18707098,8.84652119 C2.18707098,8.61095022 2.23286695,8.38806383 2.29886703,8.17514391 C2.30425479,8.15928817 2.30874459,8.14433847 2.31413236,8.12848274 C2.39494878,7.88747551 2.51258158,7.66730725 2.66433687,7.47160213 C3.27854171,6.63577818 4.35654304,6.09940118 4.89980902,5.69394729 C5.3456463,5.36278886 5.62491195,5.06243586 5.78834073,4.86174751 C6.23642291,4.2669308 6.65666833,3.44243238 7.40960804,2.69222942 C7.40960804,2.69222942 8.11091502,1.99140576 8.84454858,1.93387208 C10.3167545,1.81653961 11.6996133,3.38897588 12.363655,4.24473276 C12.7107166,4.69322366 13.3222276,5.51319187 13.8277792,6.19453562 C13.900514,4.00372553 14.2471267,1.80657315 14.986597,0.666772036 C14.986597,0.666772036 15.4122302,-0.0970215548 16.1930066,0.0103444483 C16.2612516,0.0198578916 16.4291702,0.0307303982 16.4812519,0.0393377993 C16.4821498,0.0397908204 16.4830478,0.0397908204 16.4839458,0.0397908204 C16.6621909,0.0701432348 17.0954567,0.140814528 17.5444369,0.197442167 C17.902723,0.265395333 18.2776215,0.30480817 18.6655403,0.313868592 L18.8276221,0.318851824 L18.8280711,0.318851824 L18.989704,0.313868592 C19.3767249,0.30480817 19.7516233,0.265395333 20.1103584,0.197442167 C20.5602365,0.140814528 20.9926044,0.0701432348 21.1704005,0.0397908204 C21.1712985,0.0397908204 21.1726454,0.0397908204 21.1730944,0.0393377993 C21.2256251,0.0307303982 21.3935437,0.0198578916 21.4617886,0.0103444483 C22.2421161,-0.0970215548 22.6686473,0.666772036 22.6686473,0.666772036 C23.4076686,1.80657315 23.7551792,4.00372553 23.827465,6.19453562 C24.3325677,5.51319187 24.9440787,4.69322366 25.2911403,4.24473276 C25.954733,3.38897588 27.3380408,1.81653961 28.8097977,1.93387208 C29.5434313,1.99140576 30.2451872,2.69222942 30.2451872,2.69222942 C30.9985759,3.44243238 31.4183724,4.2669308 31.8664546,4.86174751 C32.0298833,5.06243586 32.3104959,5.36278886 32.7549863,5.69394729 C33.2982522,6.09940118 34.3758046,6.63577818 34.9895605,7.47160213 C35.1417647,7.66730725 35.2602955,7.88747551 35.3411119,8.12848274 C35.3460507,8.14433847 35.3505405,8.15928817 35.3559283,8.17514391 C35.4223773,8.38806383 35.4681733,8.61095022 35.4681733,8.84652119 C35.4681733,9.25242811 35.3527854,9.62843563 35.1660097,9.95642291 C34.9787849,10.3392258 34.6905397,10.7365253 34.3784985,11.0790092 C34.299478,11.1655363 34.1998044,11.2638418 34.0924981,11.3680367 C34.0758859,11.3838924 34.0624165,11.3992951 34.0462532,11.4160569 C33.3018441,12.1390786 32.1318018,13.0800035 30.8800452,13.950257 L30.9051881,13.9584114 C31.6819237,13.9199046 32.4505777,13.8904582 33.5811097,13.9611295 C35.5777244,14.0857103 36.8909914,14.6524397 37.4100124,15.3618708 C37.4481757,15.4139682 37.4742166,15.4719549 37.4993595,15.5272235 C37.5756861,15.6907641 37.6214821,15.8715195 37.6214821,16.0640535 C37.6214821,16.1075435 37.6138494,16.1483154 37.6093596,16.1908994 C37.6093596,16.1908994 37.2825021,18.1873635 37.3332368,18.9946471 C37.4041757,20.1335421 37.6246249,21.7617 37.6246249,21.7617 C37.6336045,21.8174216 37.6340535,21.8713311 37.6367474,21.9256937 C37.6398903,21.9102909 37.646176,21.8971533 37.6479719,21.8812976 Z M24.5477639,9.78422959 L24.5477639,9.12644294 C24.544621,8.94296939 24.3969066,8.79347242 24.2141716,8.79347242 L23.5564157,8.79347242 L23.5564157,9.78422959 L20.0988196,9.78422959 L20.0988196,10.5924192 L22.6247819,10.5924192 C21.8583728,11.3213302 20.813596,11.9351738 19.7207783,12.2767517 L20.2779627,12.9889009 C21.5391479,12.5530946 22.7033534,11.7489821 23.5564157,10.7749868 L23.5564157,13.2516532 L24.5477639,13.2516532 L24.5477639,10.5924192 L28.004911,10.5924192 L28.004911,9.78422959 L24.5477639,9.78422959 Z M23.690122,14.7665558 L23.690122,13.9606312 L22.176161,13.9606312 L22.176161,13.2140524 C22.1721201,13.0319379 22.0262016,12.8847061 21.8443646,12.8847061 L21.8443646,12.883347 L21.2674251,12.883347 L21.2674251,13.9606312 L19.4737495,13.9606312 L19.4737495,14.7665558 L20.8328124,14.7665558 C20.6276284,15.5086043 19.9950154,16.1156526 19.325137,16.5899657 C19.3287289,16.595402 19.869301,17.2862592 19.869301,17.2862592 C20.2832607,16.9519296 21.0393432,16.2248307 21.2674251,15.5475641 L21.2674251,17.8321496 L22.176161,17.8321496 L22.176161,14.7665558 L23.690122,14.7665558 Z M23.1973214,16.4156432 L23.750016,15.7873029 C23.6225056,15.6944336 23.274097,15.3999699 22.9270354,15.1725533 L22.4461776,15.7193498 C22.7505862,15.981649 23.0365865,16.2430422 23.1973214,16.4156432 Z M28.6469077,13.9607218 L26.8110279,13.9607218 L26.8110279,13.2182202 L26.8105789,13.2182202 C26.8105789,13.0338406 26.6628645,12.8847967 26.4805785,12.8834376 L25.9000472,12.8834376 L25.9000472,13.9607218 L24.1131062,13.9607218 L24.1131062,14.7666464 L25.4789038,14.7666464 C25.204128,15.5390474 24.3744127,16.110307 23.6035137,16.6412477 L24.1216368,17.3022055 C24.8624541,16.8283454 25.6306591,16.1596863 25.9000472,15.5472017 L25.9000472,17.8326932 L26.8105789,17.8326932 L26.8105789,14.7698175 L28.6469077,14.7698175 L28.6469077,13.9607218 Z M28.4202176,12.3601076 C27.3431143,12.046617 26.3715212,11.5623374 25.5916427,10.9484938 L25.0685809,11.5414985 C26.2233578,12.54041 27.5204614,12.9775754 27.8800945,13.1039683 L28.4202176,12.3601076 Z M27.6217963,15.1919426 L27.1086119,15.7754338 C27.6770208,16.6846471 28.3320828,17.2482054 28.3320828,17.2482054 L28.9139611,16.5867946 C28.4591442,16.2637905 28.0061233,15.7219773 27.6217963,15.1919426 Z M14.1998491,12.6067323 L14.1998491,11.9068147 L16.461811,11.9068147 L16.461811,12.6067323 L14.1998491,12.6067323 Z M14.1998491,14.0360139 L14.1998491,13.3374554 L16.461811,13.3374554 L16.461811,14.0360139 L14.1998491,14.0360139 Z M10.8877225,12.6067323 L10.8877225,11.9068147 L13.1797662,11.9068147 L13.1797662,12.6067323 L10.8877225,12.6067323 Z M10.8877225,14.0360139 L10.8877225,13.3374554 L13.1797662,13.3374554 L13.1797662,14.0360139 L10.8877225,14.0360139 Z M18.1468335,10.6365435 L18.1468335,9.79120611 L14.1998491,9.79120611 L14.1998491,9.338185 L14.1998491,9.1062382 C14.1985021,8.93590226 14.0606652,8.79591874 13.8913997,8.79320061 L13.1797662,8.79320061 L13.1797662,9.79120611 L9.25388378,9.79120611 L9.25388378,10.6365435 L13.1797662,10.6365435 L13.1797662,11.1788098 L9.95608873,11.1788098 L9.95608873,14.766737 L12.460949,14.766737 C11.5930703,15.6089032 10.3009055,16.4854991 9.08686317,16.9040906 L9.69163942,17.6801157 C10.9294777,17.1876818 12.2328671,16.3355491 13.1797662,15.3379966 L13.1797662,17.8391261 L14.1998491,17.8391261 L14.1998491,14.767643 L14.1998491,14.766737 L17.4235265,14.766737 L17.4235265,11.8361434 C17.412751,11.4710084 17.11822,11.1788098 16.7531992,11.1788098 L14.1998491,11.1788098 L14.1998491,10.6365435 L18.1468335,10.6365435 Z M18.2620418,16.9161862 C17.1211833,16.5279471 15.9089369,15.8461504 15.0509358,15.0800917 L14.5004862,15.7057138 C15.3894669,16.5374606 16.5015907,17.2559521 17.5773471,17.6958356 L18.2620418,16.9161862 Z M15.7403,25.7524989 L15.7403,25.2011722 L16.938628,25.2011722 L16.938628,25.7524989 L15.7403,25.7524989 Z M15.7403,26.9475686 L15.7403,26.3953358 L16.938628,26.3953358 L16.938628,26.9475686 L15.7403,26.9475686 Z M13.6794811,25.7524989 L13.6794811,25.2011722 L14.8773601,25.2011722 L14.8773601,25.7524989 L13.6794811,25.7524989 Z M13.6794811,26.9475686 L13.6794811,26.3953358 L14.8773601,26.3953358 L14.8773601,26.9475686 L13.6794811,26.9475686 Z M17.7997719,26.9475686 L17.7997719,25.2632361 C17.7647514,24.8845104 17.4612409,24.5873286 17.0805057,24.5664896 L15.6702591,24.5664896 L15.6702591,24.2729319 L14.8769111,24.2729319 L14.8769111,24.5664896 L12.8160923,24.5664896 L12.8160923,26.9466625 L12.3527448,26.9466625 L12.3527448,27.5867813 L12.8160923,27.5867813 L12.8160923,29.1977244 L13.65793,29.1977244 L13.65793,27.5867813 L16.9296484,27.5867813 L16.9296484,28.3283769 L16.9278524,28.3283769 C16.9283014,28.3315481 16.9291994,28.3351722 16.9291994,28.3392494 C16.9291994,28.4144509 16.8681381,28.4769678 16.7927094,28.4769678 L15.7564632,28.4769678 L16.0231574,29.2126741 C17.0598526,29.2153922 17.3988326,29.1863989 17.6228737,28.9694018 C17.7342208,28.8624888 17.7997719,28.7075556 17.7997719,28.4715316 L17.7997719,27.5867813 L18.2626704,27.5867813 L18.2626704,26.9475686 L17.7997719,26.9475686 Z M10.9012368,27.2702102 C11.281972,27.8346745 11.7049113,28.8254317 11.7049113,28.8254317 L12.4618918,28.5042397 C12.4618918,28.5042397 11.9437687,27.351754 11.6128704,26.9707632 L10.9012368,27.2702102 Z M14.7018089,23.3324601 L14.7018089,22.8219053 L15.8723001,22.8219053 L15.8723001,23.3324601 L14.7018089,23.3324601 Z M14.7018089,21.6540169 L15.8705042,21.6540169 L15.875443,22.1867697 L14.7018089,22.1867697 L14.7018089,21.6540169 Z M15.6702591,23.9970421 L16.1156474,23.9970421 L18.1513233,23.9970421 L18.1513233,23.3324601 L16.7433216,23.3324601 L16.7433216,22.8219053 L17.9443435,22.8219053 L17.9443435,22.1867697 L16.7433216,22.1867697 L16.7433216,21.6540169 L17.9443435,21.6540169 L17.9443435,20.9898879 L16.7433216,20.9898879 L16.7433216,20.4825043 C16.7433216,20.2985777 16.5969541,20.1499868 16.4151171,20.1477217 L15.8714022,20.1477217 L15.8714022,20.9898879 L14.7036048,20.9898879 L14.7036048,20.4879406 C14.7036048,20.304014 14.5572373,20.1554231 14.3758493,20.1527049 L13.8325833,20.1527049 L13.8325833,20.9898879 L12.6266226,20.9898879 L12.6266226,21.6540169 L13.8325833,21.6540169 L13.8325833,22.1867697 L12.6266226,22.1867697 L12.6266226,22.8219053 L13.8325833,22.8219053 L13.8325833,23.3324601 L12.4259285,23.3324601 L12.4259285,23.9970421 L14.4710331,23.9970421 L14.8382988,23.9970421 L15.6702591,23.9970421 Z M10.0764603,25.9231066 L10.0751134,24.7996143 L11.3668292,24.7996143 L11.3681762,25.9231066 L10.0764603,25.9231066 Z M10.0751134,24.106039 L10.0751134,23.0065567 L11.3668292,23.0065567 L11.3668292,24.106039 L10.0751134,24.106039 Z M10.0751134,22.3138874 L10.0751134,21.2162173 L11.3668292,21.2162173 L11.3668292,22.3138874 L10.0751134,22.3138874 Z M12.1916058,21.2298079 C12.1826262,20.8189178 11.8584625,20.4904775 11.4525845,20.4750748 L9.2534797,20.4750748 L9.2534797,26.6656082 L9.85017431,26.6656082 C9.84613349,26.7023029 9.83850083,26.7906421 9.78956199,26.9292665 C9.69797004,27.197908 9.16996939,28.248917 8.74119335,28.6697736 L9.40388805,29.128231 C9.8030314,28.6924247 10.1792768,28.0455105 10.4262158,27.4203414 C10.5272364,27.1671026 10.6058079,26.8499878 10.6233181,26.6656082 L12.1916058,26.6656082 L12.1916058,21.2298079 Z M28.774912,22.5942169 C28.774912,22.2766491 28.5221361,22.0202392 28.208748,22.0157089 L24.8476826,22.0157089 C24.9913563,21.4689125 25.1242544,20.9121495 25.1749892,20.3304704 L24.2568248,20.1546982 C24.2568248,20.1546982 24.2348247,21.4471675 22.9830681,24.3523918 L23.9470285,24.5372244 C23.9470285,24.5372244 24.2698452,23.8074074 24.5697639,22.8637645 L25.1287442,22.8637645 C24.7623764,24.6513858 24.0534367,26.7361889 23.0719661,27.8347651 L23.912906,28.2334237 C24.8463357,27.0261224 25.5745815,24.7179799 25.9211942,22.8637645 L27.8540537,22.8637645 C27.7036453,26.5042421 27.5402166,27.8605873 27.2784611,28.1695477 C27.2160529,28.2542627 27.1047058,28.3353534 26.9538485,28.3353534 C26.7944605,28.3353534 26.5044194,28.3344474 26.3293171,28.3335413 L26.6516849,29.2092312 C26.6521338,29.2101372 26.6525828,29.2110432 26.6534808,29.2119493 C27.3660123,29.2214627 27.8046659,29.1444491 28.0843805,28.7684416 C28.4386258,28.3249339 28.5993607,26.803236 28.7753609,22.5942169 L28.774912,22.5942169 Z M25.5092998,28.9909203 C26.3735866,27.6671926 26.9397505,25.3246204 27.2059957,23.3354047 L26.4620356,23.1723171 C26.1877088,25.1388818 25.617504,27.3414704 24.6759926,28.5949798 L25.5092998,28.9909203 Z M20.2701504,24.4744357 C20.4106812,24.0893678 20.5449263,23.4397355 20.6351713,22.8906739 L21.4015804,22.8906739 L21.4015804,25.3329107 C20.7209265,25.4597566 19.9006398,25.6192201 19.4099045,25.6975927 L19.7304763,26.5728295 L21.4015804,26.2117717 L21.4015804,29.2125835 L22.3228877,29.2125835 L22.3228877,26.0119894 L23.6850934,25.7170726 L23.4143584,24.9759301 L22.3228877,25.1707292 L22.3228877,22.8906739 L23.3681135,22.8906739 L23.3681135,22.0158902 L22.3228877,22.0158902 L22.3228877,20.4910211 C22.3197448,20.3098127 22.1747242,20.1680171 21.9960301,20.1648459 L21.4015804,20.1648459 L21.4015804,22.0158902 L20.7397837,22.0158902 C20.7824368,21.6933391 20.7972531,21.497181 20.8179062,21.2212911 L20.8426001,20.8502668 L20.0357828,20.6966927 C19.964395,21.948843 19.7960274,22.8988283 19.4099045,24.30863 L20.2701504,24.4744357 Z M93.3482692,22.7877928 C93.3482692,23.4233814 93.5732083,23.9429967 94.0226374,24.3457324 C94.4725155,24.7489212 95.071455,24.9500626 95.8199049,24.9500626 C96.8453756,24.9500626 97.6934991,24.5876457 98.3615815,23.8628119 C99.029215,23.1375251 99.3637052,22.2192513 99.3637052,21.1075375 L99.3637052,19.8096321 L96.24913,20.2422672 C95.2901084,20.3781735 94.5668014,20.6173687 94.0796579,20.9612117 C93.5920655,21.3055078 93.3482692,21.9134621 93.3482692,22.7877928 Z M96.8790491,13.0650538 C99.9141549,13.0650538 101.432157,14.6859633 101.432157,17.9264233 L101.432157,26.4010892 L99.3637052,26.4010892 L99.3637052,24.6560519 C98.4087245,26.1147799 97.0766004,26.8133384 95.365986,26.7458383 C95.1100673,26.7354188 94.869414,26.7086905 94.6350463,26.6719958 L94.6354953,26.6652005 C93.6823105,26.5587405 92.9082687,26.2316593 92.3196557,25.6758024 C91.5927569,24.9885694 91.2295319,24.0770909 91.2295319,22.9395549 C91.2295319,20.5050195 92.6496561,19.0879694 95.4917005,18.6893108 L99.3637052,18.1425144 C99.3637052,15.9281472 98.4769694,14.8214166 96.7030489,14.8214166 C95.1477817,14.8214166 93.7433718,15.3555285 92.4907172,16.4251113 L92.4907172,14.2868517 C93.7595351,13.4723197 95.2236593,13.0650538 96.8790491,13.0650538 Z M53.1198277,24.5673504 L55.1599935,24.5673504 L55.5910145,24.5673504 L55.5910145,26.341834 L55.1599935,26.341834 L53.1198277,26.341834 L47.5223923,26.341834 C47.3338206,26.341834 47.1555755,26.2784111 46.9876569,26.1497531 C46.8192893,26.0220011 46.7353301,25.7963966 46.7353301,25.4733926 L46.7353301,11.297003 L46.7416158,11.2906607 C46.7739423,10.7298206 47.2310041,10.2840478 47.7944742,10.2840478 L47.7949232,10.2840478 L52.7341538,10.2840478 L55.0746873,10.2840478 L55.5016674,10.2840478 L55.5016674,12.0585315 L55.0746873,12.0585315 L52.7341538,12.0585315 L48.8509245,12.0585315 L48.8509245,17.0970323 L52.8140723,17.0970323 L54.1892984,17.0970323 L54.60685,17.0970323 L54.60685,17.9777053 L54.60685,17.9908429 L54.60685,18.0030745 L54.60685,18.8216836 L54.1892984,18.8216836 L52.8140723,18.8216836 L48.8509245,18.8216836 L48.8509245,24.5673504 L53.1198277,24.5673504 Z M67.8011193,10.2839119 C68.2967934,10.2839119 68.6995286,10.6893658 68.6995286,11.1899541 C68.6995286,11.1940313 68.6981817,11.1967494 68.6981817,11.2008266 L68.6995286,11.2026387 C68.6995286,11.359384 68.690549,11.4952903 68.6739367,11.6117167 C68.6577734,11.7276902 68.6317326,11.8205595 68.5944672,11.8907778 C68.5576509,11.961449 68.5123039,12.0130934 68.4593242,12.046164 C68.4058956,12.0792345 68.3461812,12.0959963 68.2810791,12.0959963 L63.8042981,12.0959963 L63.8042981,24.8675674 L63.8042981,26.0191471 L63.8042981,26.4173527 L61.6887036,26.4173527 L61.6887036,26.0191471 L61.6887036,24.8675674 L61.6887036,12.0959963 L57.2114736,12.0959963 C57.179147,12.0959963 57.1477184,12.0914661 57.1180857,12.0833117 L56.7925751,12.0833117 L56.7925751,10.2839119 L57.2114736,10.2839119 L57.5104944,10.2839119 L67.8011193,10.2839119 Z M89.6906525,11.2768888 L89.6982851,11.2845902 L89.6982851,24.8253912 L89.6982851,26.0191018 L89.6982851,26.4173074 L87.5822417,26.4173074 L87.5822417,24.8253912 L87.5822417,12.0334341 L87.5588947,12.0334341 L82.2532964,25.3205432 L81.8141938,26.4277268 L80.0142324,26.4277268 L79.8831302,26.0820717 L79.8831302,26.0816187 L74.5214093,12.0334341 L74.5088378,12.0334341 L74.5088378,24.8253912 L74.5088378,26.4173074 L72.3936923,26.4173074 L72.3936923,26.0191018 L72.3936923,24.8253912 L72.3936923,11.6103124 L72.3936923,11.2515197 L72.3936923,10.2838666 L73.2795302,10.2838666 L74.5788787,10.2838666 L75.770023,10.2838666 L75.771819,10.2834136 L75.9455743,10.2834136 L76.6998609,12.2540554 L80.9903152,23.2149011 L81.0518255,23.2149011 L84.6086462,14.5078354 L86.3030973,10.2838666 L86.6824855,10.2838666 L86.6851794,10.2838666 L87.4233027,10.2838666 L87.8812625,10.2838666 L88.6665288,10.2838666 L88.6701206,10.2874907 C89.2142845,10.3042525 89.6502443,10.7337165 89.6906525,11.2768888 Z M105.733791,26.4278627 L103.488441,26.4278627 L103.488441,9.28826208 C103.488441,9.21487266 103.504604,9.15054366 103.536033,9.09572811 C103.568359,9.04045953 103.626727,8.99515742 103.712482,8.95800969 C103.798237,8.921768 103.913625,8.89458673 104.059544,8.87601287 C104.205013,8.85789202 104.38685,8.84837858 104.604157,8.84837858 L104.605055,8.8488316 C104.607299,8.8488316 104.608646,8.84837858 104.61134,8.84837858 C105.230484,8.84837858 105.733791,9.35576222 105.733791,9.98138438 L105.733791,26.4278627 Z M110,26.4278627 L107.755099,26.4278627 L107.755099,9.28826208 C107.755099,9.21487266 107.770814,9.15054366 107.802691,9.09572811 C107.835018,9.04045953 107.893385,8.99515742 107.979589,8.95800969 C108.065345,8.921768 108.180732,8.89458673 108.326651,8.87601287 C108.471672,8.85789202 108.653509,8.84837858 108.870815,8.84837858 L108.871713,8.8488316 C108.873509,8.8488316 108.874856,8.84837858 108.877999,8.84837858 C109.497591,8.84837858 110,9.35576222 110,9.98138438 L110,26.4278627 Z" id="icon--logo-with-text"></path>
            </g>
        </g>
    </g>
</svg>