<?xml version="1.0" encoding="UTF-8"?>
<svg width="34px" height="34px" viewBox="0 0 34 34" version="1.1" xmlns="http://www.w3.org/2000/svg" xmlns:xlink="http://www.w3.org/1999/xlink">
    <!-- Generator: Sketch 53.2 (72643) - https://sketchapp.com -->
    <title>n-logo</title>
    <desc>Created with Sketch.</desc>
    <g id="UI-FLOW" stroke="none" stroke-width="1" fill="none" fill-rule="evenodd">
        <g id="Android" transform="translate(-47.000000, -86.000000)" fill="#FFFFFF" fill-rule="nonzero">
            <g id="必備元件">
                <g id="header" transform="translate(0.000000, 80.000000)">
                    <g id="search__wrap" transform="translate(47.000000, 6.000000)">
                        <g id="n-logo">
                            <path d="M33.9939307,19.3016219 C34.0486143,19.9274732 33.7264567,20.4659549 33.3228682,20.7625359 C32.3546124,21.4234538 30.5482714,21.8133479 28.290791,21.8359332 C29.2643963,22.5307291 30.1518155,23.2492991 30.7420414,23.8180927 C30.7467965,23.8228475 30.7509572,23.8276023 30.7563067,23.8323571 C30.8644851,23.9357741 30.964342,24.0332476 31.0422067,24.1176454 C31.6782004,24.8082809 32.1441995,25.6617685 32.0063018,26.4790007 C32.005113,26.4855385 32.0039243,26.491482 32.0033299,26.4980199 C31.9950085,26.5396244 31.986687,26.5824177 31.9753937,26.6240222 C31.9658835,26.6614663 31.9545902,26.6983161 31.9427024,26.7339771 C31.9367586,26.754185 31.9314091,26.7737986 31.9236821,26.7928178 C31.900501,26.8552247 31.8737536,26.913471 31.8458174,26.9687456 C31.8392792,26.981227 31.8333353,26.9937084 31.8262027,27.0067841 C31.8214476,27.016888 31.8155037,27.0281807 31.8101542,27.0382847 C31.7530931,27.1833062 31.5521904,27.4026216 31.5521904,27.4026216 C31.5533792,27.4002442 31.554568,27.3966781 31.5557567,27.3943007 C30.6790365,28.3886494 29.6245946,28.7821096 29.0527946,29.3550636 C28.4756452,29.9220742 28.0750286,30.9734805 27.071704,31.8430155 C27.0503061,31.8614404 27.0283138,31.8762992 27.0069159,31.8935354 C26.9819516,31.9131489 26.9557986,31.9333569 26.9242961,31.9565365 C26.9034926,31.9713953 26.8820947,31.9898202 26.8606968,32.0040846 C26.8238448,32.030236 26.788776,32.0534157 26.7632173,32.0664914 C26.744197,32.0771897 26.7239878,32.0866993 26.7043731,32.0973976 C25.729579,32.625181 24.6400683,32.0926428 23.7972281,31.3075056 C23.5190551,31.04718 23.1297319,30.6037944 22.6946409,30.0569918 C22.6875082,30.0480765 22.68097,30.0403499 22.6738373,30.0308403 C22.5989446,29.9375273 22.5234575,29.8406481 22.4461873,29.7407972 C22.4182511,29.7039475 22.3891261,29.6670977 22.3594068,29.6284649 C22.3035345,29.5559541 22.2464733,29.4798773 22.1900066,29.4043947 C22.1430501,29.3419879 22.0960935,29.2807698 22.049137,29.2171743 C22.0075299,29.1601166 21.9647341,29.1024646 21.9225326,29.0448126 C21.8619052,28.9610091 21.8012778,28.8783944 21.7406503,28.7939966 C21.710931,28.752392 21.6806173,28.7084101 21.6497092,28.6662112 C21.6045358,28.60321 21.5593624,28.5396145 21.5147834,28.476019 C21.4446458,30.51167 21.1106005,32.5544533 20.3866376,33.5327545 C20.1179748,33.8935254 19.7304347,33.9874328 19.4272976,33.9981311 C19.4213537,33.9987255 19.4154098,33.9993198 19.4088716,33.9993198 C19.29891,34.0022916 19.2008363,33.9951594 19.1253492,33.9850554 C19.1229716,33.9838667 19.1217828,33.9838667 19.1199997,33.9832723 L19.1170277,33.9832723 C19.0706656,33.9767345 19.0332192,33.970791 19.0070662,33.9654418 L19.008255,33.9654418 C18.9095868,33.9476113 18.774661,33.926809 18.6629164,33.9089785 C18.6801536,33.9119503 18.7134392,33.9161107 18.7580182,33.9161107 C18.3163889,33.8483547 17.6096632,33.7520699 17.0004169,33.7235411 C16.3911707,33.7520699 15.684445,33.8483547 15.2428157,33.9161107 C15.2873947,33.9161107 15.3206803,33.9119503 15.3373232,33.9089785 C15.2273616,33.9274034 15.0906527,33.9482057 14.9925789,33.9654418 L14.9931733,33.9654418 C14.9676147,33.9701966 14.9295739,33.9761401 14.8849949,33.9832723 C14.8838062,33.9832723 14.8814286,33.9832723 14.8808342,33.9832723 C14.8784567,33.9850554 14.8778623,33.9838667 14.8754847,33.9850554 C14.7999976,33.994565 14.7013295,34.0022916 14.5913679,33.9993198 C14.5848297,33.9993198 14.5794802,33.9987255 14.572942,33.9981311 C14.2698048,33.9874328 13.8822647,33.8935254 13.6130075,33.5327545 C12.8902334,32.553859 12.5555937,30.51167 12.4860505,28.476019 C12.4456322,28.5348597 12.4034308,28.5919173 12.3624181,28.6507581 C12.3273493,28.6989005 12.2934692,28.7476372 12.2589948,28.7957796 C12.1983674,28.8801774 12.1383343,28.9616035 12.0777069,29.0448126 C12.0360998,29.1018702 11.9938984,29.1595222 11.9522913,29.2159856 C11.9029572,29.2825528 11.8542175,29.3473371 11.8048834,29.4121213 C11.7513886,29.4840377 11.6972994,29.5559541 11.6438046,29.6248988 C11.610519,29.6688808 11.5784221,29.7104853 11.5451365,29.7526842 C11.4732157,29.8454029 11.4018893,29.9375273 11.3317517,30.0254912 C11.3198639,30.0397556 11.309165,30.05402 11.2972772,30.0682844 C10.8657525,30.6091435 10.4794012,31.048963 10.2024171,31.3075056 C9.3607656,32.0914541 8.27303806,32.6245867 7.29943277,32.099775 C7.27803485,32.0884824 7.25663693,32.0771897 7.23642778,32.0664914 C7.21146354,32.05401 7.17580035,32.0308304 7.13894838,32.0040846 C7.11695607,31.9898202 7.09555815,31.9708009 7.07297146,31.9547535 C7.04860161,31.9363286 7.02839246,31.9202811 7.00758893,31.9042337 C6.98143592,31.882837 6.95528291,31.8656009 6.92853551,31.8430155 C5.92521088,30.9740749 5.52578306,29.9220742 4.9462561,29.3550636 C4.37623932,28.7821096 3.32179744,28.3886494 2.44507716,27.3948951 C2.44626593,27.3972725 2.44686032,27.4002442 2.44864348,27.4026216 C2.44864348,27.4026216 2.2477408,27.1833062 2.1900853,27.0382847 C2.1853302,27.0293694 2.1811695,27.0192654 2.17522563,27.0097558 C2.1674986,26.9948971 2.16036596,26.9794439 2.15204455,26.9645852 C2.12708031,26.9146597 2.10271046,26.8623569 2.08131254,26.8052992 C2.06942481,26.7755817 2.06050901,26.7440811 2.05040444,26.7131748 C2.04148864,26.6852404 2.03376161,26.6584946 2.0254402,26.6299658 C1.79779012,25.7669686 2.28162084,24.8504798 2.95803282,24.1176454 C3.03768063,24.0314646 3.13991513,23.9316137 3.25165982,23.8258193 C3.25403736,23.8234418 3.25641491,23.8204701 3.25879246,23.8180927 C3.84901838,23.2492991 4.73643762,22.5301348 5.71004292,21.8359332 C3.4525625,21.8127535 1.64622153,21.4228595 0.676776936,20.7625359 C0.273188415,20.4665492 -0.0495635253,19.9286619 0.00630881795,19.3022162 C0.00809197784,19.3218298 0.015819004,19.3396603 0.0205740971,19.3580852 C0.0229516436,19.328962 0.0217628703,19.3016219 0.0265179634,19.2719044 C0.0265179634,19.2719044 0.225043098,17.8151508 0.28983124,16.7964338 C0.336193397,16.0719203 0.0265179634,14.29184 0.0265179634,14.29184 C0.0247348035,14.2145744 0.0312730564,14.1468185 0.038405696,14.0778738 C0.0348393762,14.0743077 0.0300842831,14.0707416 0.0265179634,14.0671755 C0.000364951651,13.913833 0.145395289,13.4775796 0.332032691,13.3224541 C0.339759717,13.3129445 0.346892357,13.307001 0.346892357,13.307001 C0.392660127,13.2612359 0.443182991,13.217254 0.495489014,13.1738664 C0.511537453,13.1601963 0.529369052,13.1465263 0.546011878,13.1328562 C0.584647009,13.1031387 0.6250653,13.0728268 0.666672364,13.0425149 C0.686881509,13.0282505 0.707090654,13.0139861 0.72908296,12.9997216 C0.776039504,12.9688154 0.825373594,12.9373148 0.877679617,12.9064086 C0.893728056,12.8963046 0.910370882,12.886795 0.927013707,12.8760967 C0.99715133,12.8368696 1.07144966,12.7988311 1.15050308,12.7619814 C1.16774029,12.7530661 1.18794944,12.7453396 1.20578104,12.7370187 C1.26938041,12.7078955 1.33595171,12.679961 1.40608933,12.6532152 C1.43343112,12.6419225 1.46196167,12.6318186 1.49049223,12.6211203 C1.55944108,12.5961575 1.63195625,12.5717892 1.70684897,12.5486095 C1.73359636,12.5396942 1.75974938,12.5313733 1.78768555,12.5236468 C1.99809841,12.4612399 2.23347552,12.405371 2.49500564,12.3584173 C2.51996988,12.3542568 2.5455285,12.3500964 2.57049274,12.3459359 C2.68283181,12.3269167 2.79933159,12.3084918 2.92118085,12.2924443 C2.94971141,12.2888782 2.97883635,12.2847178 3.00855568,12.2811517 C3.15358602,12.2633212 3.30337145,12.2466793 3.46266707,12.2336036 C3.465639,12.2336036 3.46801655,12.2330093 3.47098848,12.2324149 C3.81335518,12.2032917 4.19197946,12.1860556 4.60626695,12.1795177 C4.62944802,12.1789234 4.6526291,12.1789234 4.67581018,12.1789234 C4.76140186,12.1777347 4.8440216,12.1753573 4.93199082,12.1753573 C5.02590391,12.1753573 5.12813841,12.178329 5.2262122,12.1795177 C5.27435752,12.1801121 5.32131406,12.1807064 5.37064815,12.1813008 C5.48060968,12.1836782 5.59294875,12.1860556 5.70825976,12.1896217 C4.73465446,11.4954201 3.84782961,10.7774445 3.25819807,10.2086509 C3.2480935,10.1991413 3.24096086,10.190226 3.23085628,10.180122 C3.12683862,10.0820542 3.03233115,9.98874111 2.95743843,9.90790942 C2.31847281,9.21549088 1.8518793,8.35962591 1.99453209,7.53942197 L1.99572087,7.53228976 C2.00344789,7.48830781 2.01236369,7.44373151 2.02425143,7.40034391 C2.03376161,7.36289982 2.04505496,7.32842748 2.0563483,7.29336079 C2.06169778,7.27434157 2.06645288,7.254728 2.07358552,7.23630312 C2.09736098,7.17092455 2.12529715,7.11089513 2.15501648,7.05324312 C2.15977158,7.0425448 2.16512106,7.03184649 2.17165931,7.02114818 C2.17700879,7.00926117 2.18295266,6.99737415 2.18949091,6.98608149 C2.24714641,6.84224862 2.44804909,6.62233887 2.44804909,6.62233887 C2.44626593,6.62471628 2.44567155,6.62768803 2.44388839,6.63006543 C3.32120305,5.63571675 4.37564493,5.24285095 4.94566171,4.66930255 C5.52518868,4.10169765 5.92461649,3.04969695 6.92794112,2.18075626 C6.95944361,2.15401048 6.99035172,2.13261385 7.02125982,2.10883982 C7.03314756,2.09933021 7.04325213,2.09279236 7.05513986,2.08268839 C7.08426481,2.06069742 7.11457852,2.03692339 7.14429785,2.01671547 C7.17936667,1.99175274 7.21205793,1.97095047 7.2358334,1.9584691 C7.25009868,1.95014819 7.2667415,1.94301599 7.28100678,1.93469508 C8.25877279,1.39324161 9.35541612,1.92815722 10.2018227,2.71686057 C10.472863,2.97005396 10.8497041,3.39739209 11.2705298,3.92339244 C11.2954941,3.95370433 11.3192695,3.98401621 11.3448282,4.0155168 C11.4001061,4.08565018 11.4559785,4.15816096 11.513634,4.23067175 C11.5599961,4.29129551 11.6069527,4.35073058 11.6539092,4.41254305 C11.6907612,4.46127981 11.7288019,4.51179962 11.7656539,4.56113072 C11.830442,4.64731157 11.8958246,4.73349242 11.9612071,4.82145632 C11.9843882,4.85414561 12.008758,4.88683489 12.0325335,4.91952418 C12.1103981,5.0253186 12.1882628,5.13111302 12.2655331,5.23928485 C12.2833647,5.26424757 12.3017906,5.2892103 12.3190279,5.31417303 C12.3737114,5.39203297 12.4289894,5.46929856 12.4842673,5.54775285 C12.551433,3.50437522 12.8854783,1.44970492 13.6118188,0.467243252 C13.8822647,0.104689338 14.2727767,0.0113762816 14.5765083,0.0012723201 C14.5794802,0.0012723201 14.5830465,0.000677969419 14.5860185,0.000677969419 C14.6977631,-0.00229378397 14.7982145,0.00483842417 14.874296,0.0155367364 C14.8766735,0.0155367364 14.8772679,0.0155367364 14.8796455,0.016131087 C14.8802398,0.016131087 14.8826174,0.016131087 14.8838062,0.016131087 C14.9283852,0.0226689445 14.9664259,0.0298011526 14.9919845,0.0345559581 L14.9913901,0.0345559581 C15.0894639,0.0517921277 15.2255785,0.0731887521 15.3361344,0.0904249218 C15.3188972,0.0880475191 15.2838284,0.082698363 15.2362774,0.0832927137 C15.6767179,0.151048691 16.3870099,0.247927852 16.9992282,0.275862333 C17.6114464,0.247927852 18.3217384,0.151048691 18.7627733,0.0832927137 C18.714628,0.082698363 18.6789648,0.0880475191 18.6617276,0.0904249218 C18.7728779,0.0725944015 18.908398,0.0511977771 19.0070662,0.0345559581 L19.0058774,0.0345559581 C19.0320305,0.0298011526 19.0700712,0.0232632952 19.115839,0.016131087 L19.1188109,0.016131087 C19.1205941,0.0155367364 19.1217828,0.0155367364 19.1241604,0.0155367364 C19.2002419,0.00543277484 19.3000988,-0.00229378397 19.4118435,0.000677969419 C19.4154098,0.000677969419 19.4189761,0.0012723201 19.4219481,0.0012723201 C19.726274,0.0113762816 20.1161917,0.104689338 20.3860432,0.467243252 C21.1117893,1.44970492 21.4464289,3.50437522 21.514189,5.54775285 C21.5724389,5.46454375 21.6306888,5.38311771 21.6895331,5.30109732 C21.703204,5.28088939 21.7174692,5.26068147 21.7311401,5.2410679 C21.8090048,5.13230172 21.8868694,5.02710165 21.9641397,4.92071288 C21.9891039,4.88742924 22.0134738,4.85355126 22.0378436,4.82086197 C22.1008486,4.73527547 22.1632592,4.65325508 22.2256698,4.57064033 C22.2660881,4.51714877 22.3071008,4.46246851 22.3469247,4.4095713 C22.3903149,4.35310799 22.4337051,4.29902207 22.4759066,4.24374746 C22.5377228,4.16469882 22.5983502,4.08565018 22.6589777,4.01016764 C22.6797812,3.98461056 22.6999903,3.95964784 22.7201995,3.93468511 C23.1445915,3.40392995 23.5238102,2.97243136 23.7966337,2.71686057 C24.6448234,1.92756287 25.7426555,1.39264726 26.7210159,1.93707248 C26.7346868,1.94420469 26.7495465,1.95074254 26.7620286,1.9584691 C26.7863984,1.97095047 26.8184953,1.99175274 26.8541585,2.01612112 C26.8826891,2.03514034 26.9112196,2.05832002 26.9403446,2.07971664 C26.9593649,2.09398106 26.974819,2.10586807 26.9914618,2.11894379 C27.0182092,2.14034041 27.0449566,2.15817093 27.0711096,2.18075626 C28.0738399,3.04969695 28.4750508,4.102292 29.0522003,4.66930255 C29.6240002,5.24285095 30.6784421,5.63571675 31.5551624,6.63065978 C31.5539736,6.62828238 31.5527848,6.62471628 31.551596,6.62233887 C31.551596,6.62233887 31.7519043,6.84224862 31.8095598,6.98608149 C31.8166925,6.99737415 31.8226363,7.01163857 31.8291746,7.02411993 C31.8333353,7.03244084 31.8380904,7.0401674 31.8428455,7.04908266 C31.8731592,7.10732903 31.9016898,7.1703302 31.926654,7.23808618 C31.9308147,7.24997319 31.9337866,7.26007715 31.9379473,7.27136981 C31.9516182,7.31475741 31.9646947,7.35814501 31.9765825,7.40450437 C31.9872814,7.44373151 31.9950085,7.48355301 32.0021411,7.52278015 C32.0039243,7.53169541 32.005113,7.54001632 32.0068962,7.54952593 C32.1430107,8.36556941 31.677606,9.21786829 31.0422067,9.90672072 C30.9690971,9.98576936 30.8769672,10.0761107 30.7771103,10.1718011 C30.7640337,10.1842825 30.7539292,10.1955752 30.7414471,10.2074622 C30.1512211,10.7762558 29.2643963,11.4942314 28.2913854,12.188433 C28.4066964,12.1848669 28.5196298,12.1824895 28.6295914,12.1801121 C28.6783311,12.1795177 28.7252876,12.1789234 28.7734329,12.178329 C28.8715067,12.1771403 28.9737412,12.1741686 29.0676543,12.1741686 C29.1562179,12.1741686 29.2388377,12.176546 29.3238349,12.1777347 C29.347016,12.1777347 29.3701971,12.1777347 29.3927838,12.178329 C29.80826,12.1848669 30.1868843,12.202103 30.5286566,12.2312262 C30.5310342,12.2312262 30.5334117,12.2318206 30.5357893,12.2324149 C30.6956793,12.2454906 30.8466535,12.2621325 30.9922782,12.279963 C31.0202144,12.2835291 31.0487449,12.2876895 31.0766811,12.2912556 C31.2003135,12.3078975 31.3191909,12.325728 31.4315299,12.3453416 C31.4558998,12.3489077 31.4802696,12.3530681 31.5034507,12.3572286 C31.7655752,12.4047766 32.0021411,12.4606456 32.2137427,12.5230524 C32.2398958,12.530779 32.2642656,12.5385055 32.2898242,12.5468264 C32.3665001,12.5706005 32.4407984,12.5955632 32.5109361,12.6217146 C32.5388722,12.6318186 32.5656196,12.6419225 32.592367,12.6520265 C32.6636934,12.6793666 32.7320479,12.7084898 32.796836,12.737613 C32.8140732,12.7453396 32.8324992,12.7530661 32.8485477,12.7607927 C32.9281955,12.7976424 33.0030882,12.8362752 33.0732258,12.8760967 C33.0892742,12.8862007 33.1047283,12.8951159 33.1207767,12.9052199 C33.1736771,12.9361261 33.2242,12.9670324 33.2717509,12.9991273 C33.2925545,13.0133917 33.3127636,13.0276561 33.3329728,13.0419205 C33.3745798,13.0722324 33.4155925,13.10195 33.4542276,13.1328562 C33.4708705,13.1459319 33.4887021,13.159602 33.5047505,13.173272 C33.5570565,13.217254 33.606985,13.2612359 33.6533472,13.3064066 C33.6533472,13.3064066 33.662263,13.3141332 33.6729619,13.3278032 C33.7092195,13.3587095 33.7430995,13.400314 33.7751964,13.4478621 C33.7841122,13.4603434 33.7912449,13.4734191 33.7995663,13.4859005 C33.8239361,13.5263164 33.845334,13.569704 33.8649488,13.6136859 C33.8768365,13.6386486 33.8881299,13.663017 33.8982344,13.6897628 C33.95589,13.8395392 33.9862037,13.9899099 33.9725328,14.0671755 C33.9701552,14.0695529 33.9671833,14.0719303 33.9654001,14.0743077 C33.9677777,14.120667 33.9749103,14.1634603 33.9725328,14.2139801 C33.9725328,14.2139801 33.6634517,15.9946547 33.7098139,16.7185738 C33.774602,17.7378853 33.9725328,19.1946388 33.9725328,19.1946388 C33.9808542,19.2445642 33.9808542,19.2921123 33.9838261,19.3396603 C33.9867981,19.327179 33.9921475,19.3141033 33.9939307,19.3016219 Z M22.1592341,8.7883174 L22.1592341,8.19913293 C22.1568535,8.03487544 22.022948,7.90096988 21.8575002,7.90096988 L21.2629595,7.90096988 L21.2629595,8.7883174 L18.1384964,8.7883174 L18.1384964,9.5125977 L20.4214374,9.5125977 C19.7281042,10.1648666 18.7836236,10.7147721 17.7962933,11.0200768 L18.3003733,11.6586575 C19.4400585,11.2682484 20.4922586,10.548134 21.2635546,9.67506978 L21.2635546,11.8937362 L22.1598292,11.8937362 L22.1598292,9.5125977 L25.2836972,9.5125977 L25.2836972,8.7883174 L22.1592341,8.7883174 Z M21.3837721,13.2506458 L21.3837721,12.5287461 L20.0149597,12.5287461 L20.0149597,11.8604085 C20.0113889,11.6973413 19.8798638,11.5652212 19.7156063,11.5652212 L19.7156063,11.5640309 L19.1942674,11.5640309 L19.1942674,12.5287461 L17.5731174,12.5287461 L17.5731174,13.2506458 L18.8002874,13.2506458 C18.6152002,13.9154126 18.0438698,14.4587716 17.4386167,14.8836986 C17.4421875,14.8884596 17.930794,15.5074009 17.930794,15.5074009 C18.3045393,15.2080476 18.9877552,14.5563738 19.1936722,13.9505256 L19.1936722,15.9966026 L20.0143645,15.9966026 L20.0143645,13.2506458 L21.3837721,13.2506458 Z M20.9386105,14.727773 L21.4379294,14.1653696 C21.3230682,14.0820506 21.0082414,13.8184054 20.6946048,13.6142738 L20.2601556,14.1040706 C20.5357035,14.3391493 20.7933973,14.5730377 20.9386105,14.727773 Z M25.8639546,12.5293412 L24.2047159,12.5293412 L24.2047159,11.8645745 L24.2041208,11.8645745 C24.2041208,11.6997219 24.0708103,11.5658163 23.9059577,11.564626 L23.3810479,11.564626 L23.3810479,12.5293412 L21.7664444,12.5293412 L21.7664444,13.251241 L23.0007561,13.251241 C22.7519893,13.9427888 22.0021182,14.4546056 21.3058093,14.9307143 L21.773586,15.5222793 C22.4431138,15.0973523 23.1376374,14.4980505 23.3804528,13.9505256 L23.3804528,15.9966026 L24.2035256,15.9966026 L24.2035256,13.2536215 L25.8633595,13.2536215 L25.8633595,12.5293412 L25.8639546,12.5293412 Z M25.6586327,11.0950639 C24.6849905,10.8141598 23.8071652,10.3809009 23.1025243,9.83099537 L22.6293914,10.3630468 C23.6732596,11.2569408 24.8462723,11.6485402 25.1706213,11.761616 L25.6586327,11.0950639 Z M24.9373281,13.6321279 L24.4731222,14.1546572 C24.9867244,14.968803 25.5788845,15.4740733 25.5788845,15.4740733 L26.1043895,14.881318 C25.6937457,14.5914869 25.2842923,14.1064512 24.9373281,13.6321279 Z M16.3751089,9.5524718 L16.3751089,8.79486389 L12.8078648,8.79486389 L12.8078648,8.38898126 L12.8078648,8.18187399 C12.8066745,8.02832894 12.6822911,7.90335042 12.5293412,7.90096988 L11.8865945,7.90096988 L11.8865945,8.79426876 L8.33839471,8.79426876 L8.33839471,9.55187667 L11.8865945,9.55187667 L11.8865945,10.0369124 L8.9728095,10.0369124 L8.9728095,13.2500507 L11.2367062,13.2500507 C10.4529123,14.0046829 9.28525581,14.7896671 8.18842048,15.1646027 L8.73416004,15.8597213 C9.85301539,15.4193208 11.0307892,14.6557615 11.8871897,13.7618675 L11.8871897,16.003149 L12.8084599,16.003149 L12.8084599,13.251241 L12.8084599,13.2506458 L15.7216498,13.2506458 L15.7216498,10.6260968 C15.7115325,10.2987721 15.4449116,10.0375075 15.1158015,10.0375075 L12.8078648,10.0375075 L12.8078648,9.5524718 L16.3751089,9.5524718 Z M11.8859994,12.5965916 L9.8149267,12.5965916 L9.8149267,11.9705087 L11.8859994,11.9705087 L11.8859994,12.5965916 Z M11.8859994,11.3164544 L9.8149267,11.3164544 L9.8149267,10.6897764 L11.8859994,10.6897764 L11.8859994,11.3164544 Z M14.8521564,12.5965916 L12.8072696,12.5965916 L12.8072696,11.9705087 L14.8521564,11.9705087 L14.8521564,12.5965916 Z M14.8521564,10.6897764 L14.8521564,11.3164544 L12.8072696,11.3164544 L12.8072696,10.6897764 L14.8521564,10.6897764 Z M16.4786626,15.1765054 C15.4478873,14.8283509 14.3522423,14.2183367 13.5767803,13.53155 L13.0792467,14.0915728 C13.8826801,14.8366828 14.8878645,15.4806198 15.8591262,15.8734094 L16.4786626,15.1765054 Z M16.0608772,24.161271 L16.0608772,22.6526017 C16.029335,22.3133742 15.7549774,22.0473485 15.4103938,22.0288993 L14.1356128,22.0288993 L14.1356128,21.7664444 L13.4184741,21.7664444 L13.4184741,22.0288993 L11.5562941,22.0288993 L11.5562941,24.1600807 L11.1385088,24.1600807 L11.1385088,24.7337916 L11.5562941,24.7337916 L11.5562941,26.176996 L12.3168777,26.176996 L12.3168777,24.7337916 L15.2741077,24.7337916 L15.2741077,25.3973681 L15.2723222,25.3973681 C15.2729174,25.4009389 15.2741077,25.4039146 15.2741077,25.4039146 C15.2741077,25.4753309 15.2181649,25.5306785 15.1503194,25.5306785 C15.1503194,25.5306785 14.4926943,25.5306785 14.2135756,25.5306785 L14.4552008,26.190089 C15.3913494,26.1924696 15.6984395,26.1668787 15.9007857,25.9722693 C16.0007685,25.8764524 16.0608772,25.7371907 16.0608772,25.5259174 L16.0608772,24.7337916 L16.4792577,24.7337916 L16.4792577,24.161271 L16.0608772,24.161271 Z M13.4196644,24.161271 L12.3371123,24.161271 L12.3371123,23.6667131 L13.4196644,23.6667131 L13.4196644,24.161271 Z M13.4196644,23.0906216 L12.3371123,23.0906216 L12.3371123,22.5966589 L13.4196644,22.5966589 L13.4196644,23.0906216 Z M15.2824396,24.161271 L14.1998875,24.161271 L14.1998875,23.6667131 L15.2824396,23.6667131 L15.2824396,24.161271 Z M15.2824396,23.0906216 L14.1998875,23.0906216 L14.1998875,22.5966589 L15.2824396,22.5966589 L15.2824396,23.0906216 Z M9.82742455,24.4499119 C10.1708179,24.9557773 10.5534903,25.8425297 10.5534903,25.8425297 L11.2373013,25.5550791 C11.2373013,25.5550791 10.7689294,24.5225184 10.4695761,24.1815056 L9.82742455,24.4499119 Z M14.136208,21.5182728 L14.5391149,21.5182728 L16.3792749,21.5182728 L16.3792749,20.9231369 L15.1062794,20.9231369 L15.1062794,20.4660726 L16.191212,20.4660726 L16.191212,19.8971228 L15.1062794,19.8971228 L15.1062794,19.4192287 L16.191212,19.4192287 L16.191212,18.8252831 L15.1062794,18.8252831 L15.1062794,18.3705994 C15.1062794,18.2063419 14.9735641,18.0730315 14.8099017,18.0706509 L14.3183195,18.0706509 L14.3183195,18.8252831 L13.2631437,18.8252831 L13.2631437,18.3753605 C13.2631437,18.2105078 13.1310235,18.0777925 12.9673612,18.075412 L12.4763741,18.075412 L12.4763741,18.8252831 L11.3866804,18.8252831 L11.3866804,19.4192287 L12.4763741,19.4192287 L12.4763741,19.8971228 L11.3866804,19.8971228 L11.3866804,20.4660726 L12.4763741,20.4660726 L12.4763741,20.9231369 L11.205164,20.9231369 L11.205164,21.5182728 L13.0536559,21.5182728 L13.3851465,21.5182728 L14.136208,21.5182728 Z M13.2607631,19.4192287 L14.3171292,19.4192287 L14.3212952,19.8971228 L13.2607631,19.8971228 L13.2607631,19.4192287 Z M13.2607631,20.4654775 L14.3189147,20.4654775 L14.3189147,20.9225418 L13.2607631,20.9225418 L13.2607631,20.4654775 Z M10.9927005,19.039532 C10.9849637,18.6717381 10.6921569,18.377741 10.3255532,18.3634577 L8.33839471,18.3634577 L8.33839471,23.9077431 L8.87758777,23.9077431 C8.87342182,23.9404756 8.86568506,24.0196287 8.82224014,24.144012 C8.73892112,24.3838518 8.26221733,25.3253567 7.8747839,25.7026728 L8.47349054,26.1127214 C8.83414286,25.7229074 9.17396541,25.14265 9.39773649,24.5838174 C9.48879227,24.3564755 9.56020857,24.0725957 9.5756821,23.907148 L10.9927005,23.907148 L10.9927005,19.039532 Z M9.07993395,19.0276293 L10.2475904,19.0276293 L10.2475904,20.0107937 L9.07993395,20.0107937 L9.07993395,19.0276293 Z M9.07993395,20.6315204 L10.2475904,20.6315204 L10.2475904,21.615875 L9.07993395,21.615875 L9.07993395,20.6315204 Z M9.08171936,23.2429764 L9.07993395,22.2371968 L10.2475904,22.2371968 L10.2487807,23.2429764 L9.08171936,23.2429764 Z M25.9794109,20.261941 C25.9794109,19.976871 25.7502836,19.7483388 25.4675941,19.7441729 L22.430616,19.7441729 C22.5609507,19.2543761 22.680573,18.7556523 22.7269936,18.2349084 L21.896184,18.0766023 C21.896184,18.0766023 21.8771397,19.2347366 20.7451913,21.8360753 L21.6164702,22.0021182 C21.6164702,22.0021182 21.9080867,21.3480639 22.1788735,20.5035662 L22.684739,20.5035662 C22.3538435,22.1038864 21.7134773,23.9714227 20.8255347,24.9551822 L21.5855231,25.3122637 C22.4294257,24.231497 23.0870508,22.1639951 23.4006874,20.5035662 L25.1480062,20.5035662 C25.0117201,23.7637202 24.8641264,24.9789876 24.6284526,25.2551306 C24.5713196,25.3307129 24.4707416,25.4033195 24.3350506,25.4033195 C24.1904326,25.4033195 23.9279777,25.4027243 23.7696716,25.401534 L24.0612882,26.1859231 C24.0612882,26.1859231 24.0618833,26.1877085 24.0630736,26.1883036 C24.7076057,26.1972307 25.103371,26.1275998 25.3563037,25.791348 C25.6764868,25.3937973 25.8216999,24.0315314 25.9811963,20.2613459 L25.9794109,20.2613459 L25.9794109,20.261941 Z M23.0275372,25.9913137 C23.8089506,24.8058031 24.3201722,22.706759 24.5612023,20.9255175 L23.8886988,20.7797092 C23.6405271,22.5413113 23.1257346,24.5129963 22.2740953,25.6360176 L23.0275372,25.9913137 Z M18.2932317,21.9461754 C18.4205908,21.6009966 18.5419985,21.0189538 18.6235321,20.5273716 L19.3156751,20.5273716 L19.3156751,22.7150909 C18.7008998,22.8281667 17.9593605,22.9715945 17.5159843,23.0412254 L17.8058155,23.8256144 L19.3156751,23.5012653 L19.3156751,26.190089 L20.1482701,26.190089 L20.1482701,23.3233197 L21.3796061,23.0590794 L21.1344102,22.395503 L20.1482701,22.5704729 L20.1482701,20.5279667 L21.0933458,20.5279667 L21.0933458,19.744768 L20.1482701,19.744768 L20.1482701,18.3789313 C20.1458895,18.2164592 20.0143645,18.0891001 19.8530827,18.0867196 L19.3156751,18.0867196 L19.3156751,19.744768 L18.7175636,19.744768 C18.7562474,19.4561271 18.7693404,19.2805621 18.7883847,19.0329855 L18.7877896,19.0329855 L18.8109999,18.7003046 L18.0813634,18.5634234 C18.0170887,19.6846593 17.8647339,20.5357035 17.5153892,21.7985817 L18.2932317,21.9461754 Z"></path>
                        </g>
                    </g>
                </g>
            </g>
        </g>
    </g>
</svg>