<?xml version="1.0" encoding="UTF-8"?>
<svg width="34px" height="35px" viewBox="0 0 34 35" version="1.1" xmlns="http://www.w3.org/2000/svg" xmlns:xlink="http://www.w3.org/1999/xlink">
    <!-- Generator: Sketch 53.2 (72643) - https://sketchapp.com -->
    <title>search__btn</title>
    <desc>Created with Sketch.</desc>
    <g id="UI-FLOW" stroke="none" stroke-width="1" fill="none" fill-rule="evenodd">
        <g id="Android" transform="translate(-280.000000, -85.000000)">
            <g id="必備元件">
                <g id="header" transform="translate(0.000000, 80.000000)">
                    <g id="search__wrap" transform="translate(47.000000, 6.000000)">
                        <g id="search__box-d-flex-n-col-11" transform="translate(44.000000, 0.000000)">
                            <g id="search__btn" transform="translate(189.000000, 0.000000)">
                                <rect x="0" y="0" width="34" height="34"></rect>
                                <path d="M24.875,24.140625 C24.9687505,24.2343755 25.015625,24.3515618 25.015625,24.4921875 C25.015625,24.6328132 24.9661463,24.7526037 24.8671875,24.8515625 C24.7682287,24.9505213 24.6510423,25 24.515625,25 C24.3802077,25 24.2604172,24.9479172 24.15625,24.84375 L19.3125,19.96875 C18.1354108,20.9895884 16.7708411,21.5 15.21875,21.5 C14.0833277,21.5 13.0364631,21.221357 12.078125,20.6640625 C11.1197869,20.106768 10.361982,19.3489631 9.8046875,18.390625 C9.24739305,17.4322869 8.96875,16.3854223 8.96875,15.25 C8.96875,14.1145777 9.24739305,13.0677131 9.8046875,12.109375 C10.361982,11.1510369 11.1197869,10.393232 12.078125,9.8359375 C13.0364631,9.27864305 14.0807235,9 15.2109375,9 C16.3411515,9 17.388016,9.27864305 18.3515625,9.8359375 C19.315109,10.393232 20.075518,11.1510369 20.6328125,12.109375 C21.190107,13.0677131 21.46875,14.1145777 21.46875,15.25 C21.46875,16.7604242 20.9843798,18.0937442 20.015625,19.25 L24.875,24.140625 Z M15.21875,20.515625 C15.625002,20.515625 16.0260397,20.4687505 16.421875,20.375 C16.8177103,20.2812495 17.1874983,20.1484384 17.53125,19.9765625 C17.8750017,19.8046866 18.1979152,19.5989595 18.5,19.359375 C18.8020848,19.1197905 19.0729155,18.8463557 19.3125,18.5390625 C19.5520845,18.2317693 19.7578116,17.9062517 19.9296875,17.5625 C20.1015634,17.2187483 20.2343745,16.8489603 20.328125,16.453125 C20.4218755,16.0572897 20.46875,15.656252 20.46875,15.25 C20.46875,14.3020786 20.2343773,13.4244832 19.765625,12.6171875 C19.2968727,11.8098918 18.6588582,11.1692732 17.8515625,10.6953125 C17.0442668,10.2213518 16.1640673,9.984375 15.2109375,9.984375 C14.2578077,9.984375 13.3776082,10.2213518 12.5703125,10.6953125 C11.7630168,11.1692732 11.1250023,11.8098918 10.65625,12.6171875 C10.1874977,13.4244832 9.953125,14.3020786 9.953125,15.25 C9.953125,16.1979214 10.1874977,17.0755168 10.65625,17.8828125 C11.1250023,18.6901082 11.7630168,19.3307268 12.5703125,19.8046875 C13.3776082,20.2786482 14.2604119,20.515625 15.21875,20.515625 Z" id="" fill="#5D5D5D" fill-rule="nonzero"></path>
                            </g>
                        </g>
                    </g>
                </g>
            </g>
        </g>
    </g>
</svg>